<?xml version="1.0" encoding="utf-8"?>
<!-- Generator: Adobe Illustrator 26.0.1, SVG Export Plug-In . SVG Version: 6.00 Build 0)  -->
<svg version="1.1" id="Capa_1" xmlns="http://www.w3.org/2000/svg" xmlns:xlink="http://www.w3.org/1999/xlink" x="0px" y="0px"
	 viewBox="0 0 97 27.7" style="enable-background:new 0 0 97 27.7;" xml:space="preserve">
<style type="text/css">
	.st0{fill:#706E6E;}
</style>
<g>
	<path class="st0" d="M46.2,15l0.6-1L28,1.2v25.1l1.4-0.2C34,25.6,38.3,23.5,42,20C44.8,17.5,46.2,15.1,46.2,15z M30.5,23.5V5.9
		l12.9,8.7C41.9,16.9,37.5,22.2,30.5,23.5z"/>
	<path class="st0" d="M48,13.9l-0.2,0.4c0,0.1-2.5,5.4-8.4,9.3L38.9,24l0.7,1l0.5-0.3c2.7-1.8,4.7-3.9,6.2-5.7l4.3,6.7l1.1-0.7
		l-3.2-5h7.4v-6.1h-7.4H48z M54.6,15.2v3.6h-8.1c1.3-1.6,2-3,2.3-3.6C48.8,15.2,54.6,15.2,54.6,15.2z"/>
	<path class="st0" d="M68.1,14.1v11.5h1.2v-5.3h7.9v-6.2C77.2,14.1,68.1,14.1,68.1,14.1z M76,19.1h-6.7v-3.7H76V19.1z"/>
	<path class="st0" d="M57.2,4.4C57.9,5,58.7,6.2,59,6.7c3.5,7-4.5,10.8-1.7,16.3c1,2,3.9,4.7,7.3,2.9c4.7-2.3,2.7-8.8,1.5-11.4
		C64.7,11.7,59.3,4.9,57.2,4.4z M65.1,24.1c0,0,1.7-2.2,0.3-7.7C65.4,16.4,68.2,21.4,65.1,24.1z"/>
	<polygon class="st0" points="26.1,13.4 22.5,13.4 22.5,10.2 21.3,10.2 21.3,13.4 21.3,14.6 21.3,17.7 22.5,17.7 22.5,14.6 
		26.1,14.6 26.1,17.8 27.4,17.8 27.4,14.6 27.4,13.4 27.4,10.3 26.1,10.3 	"/>
	<polygon class="st0" points="21.3,26.4 27.4,26.4 27.4,25.2 22.5,25.2 22.5,23.4 25.8,23.4 25.8,22.2 22.5,22.2 22.5,20.3 
		27.4,20.3 27.4,19.1 21.3,19.1 	"/>
	<polygon class="st0" points="20.9,2.5 23.8,2.5 23.8,9.2 25,9.2 25,2.5 27.4,2.5 27.4,1.2 20.9,1.2 	"/>
</g>
</svg>
